# xmcd
#
# Track frame offsets: 
#        150
#        18134
#        34681
#        51777
#        69831
#        84910
#        100787
#        116850
#        132596
#        151269
#        166718
#        188820
#        208593
#        224205
#        239889
#        260754
#        278959
#        299013
#        324275
#        340147
#
# Disc length: 4783 seconds
#
# Revision: 0
# Processed by: cddbd v1.5.2PL0 Copyright (c) Steve Scherf et al.
# Submitted via: ExactAudioCopy v0.90b4
#
DISCID=2e12ad14
DTITLE=Various Artist - R&B Lovesongs 2007 - CD1
DYEAR=2007
DGENRE=R&B
TTITLE0=Justin Timberlake - Sexyback
TTITLE1=Nelly Furtado feat. Timbaland - Promiscuous
TTITLE2=Beyonce - Irreplaceable
TTITLE3=Christina Aguilera - Hurt
TTITLE4=Lemar - It's Not That Easy
TTITLE5=Christina Millian - Say I
TTITLE6=Ashanti - Rock Wit U (Awww Baby)
TTITLE7=Alicia Keys - Fallin'
TTITLE8=Kelly Rowland - Stole
TTITLE9=TLC - Waterfalls
TTITLE10=Brandy and Monica - The Boy Is Mine
TTITLE11=Angie Stone - Wish I Didn't Miss You
TTITLE12=Jo Jo feat. Bow Wow - Baby It's You
TTITLE13=Jamie Foxx - DJ Play A Love Song
TTITLE14=LL Cool J feat. Boyz II Men - Hey Lover
TTITLE15=Ja Rule feat. Ashanti - Always On Time
TTITLE16=Usher - U Remind Me
TTITLE17=Nelly - My Place
TTITLE18=John Legend - Save Room
TTITLE19=Whitney Houston - My Love Is Your Love
EXTD=
EXTT0=
EXTT1=
EXTT2=
EXTT3=
EXTT4=
EXTT5=
EXTT6=
EXTT7=
EXTT8=
EXTT9=
EXTT10=
EXTT11=
EXTT12=
EXTT13=
EXTT14=
EXTT15=
EXTT16=
EXTT17=
EXTT18=
EXTT19=
PLAYORDER=
